# AST/ASF file generated using VICON BodyLanguage
# -----------------------------------------------
:version 1.10
:name VICON
:units
  mass 1.0
  length 0.45
  angle deg
:documentation
   .ast/.asf automatically generated from VICON data using
   VICON BodyBuilder and BodyLanguage model FoxedUp or BRILLIANT.MOD
:root
   order TX TY TZ RX RY RZ
   axis XYZ
   position 0 0 0  
   orientation 0 0 0 
:bonedata
  begin
     id 1 
     name lhipjoint
     direction 0.702568 -0.596508 0.388042 
     length 2.56661 
     axis 0 0 0  XYZ
  end
  begin
     id 2 
     name lfemur
     direction 0.34202 -0.939693 0  
     length 6.58374  
     axis 0 0 20  XYZ
    dof rx ry rz
    limits (-160.0 20.0)
           (-70.0 70.0)
           (-60.0 70.0)
  end
  begin
     id 3 
     name ltibia
     direction 0.34202 -0.939693 0   
     length 6.62538   
     axis 0 0 20   XYZ
    dof rx
    limits (-10.0 170.0)
  end
  begin
     id 4 
     name lfoot
     direction 0.10455 -0.287249 0.952133   
     length 2.26699   
     axis -90 7.62852e-016 20   XYZ
    dof rx rz
    limits (-45.0 90.0)
           (-70.0 20.0)
  end
  begin
     id 5 
     name ltoes
     direction 1.53572e-011 -4.22322e-011 1   
     length 1.12949   
     axis -90 7.62852e-016 20   XYZ
    dof rx
    limits (-90.0 20.0)
  end
  begin
     id 6 
     name rhipjoint
     direction -0.728055 -0.574632 0.373811   
     length 2.66432  
     axis 0 0 0  XYZ 
  end
  begin
     id 7 
     name rfemur
     direction -0.34202 -0.939693 0   
     length 6.66732   
     axis 0 0 -20   XYZ
    dof rx ry rz
    limits (-160.0 20.0)
           (-70.0 70.0)
           (-70.0 60.0)
  end
  begin
     id 8 
     name rtibia
     direction -0.34202 -0.939693 0   
     length 6.59288   
     axis 0 0 -20   XYZ
    dof rx
    limits (-10.0 170.0)
 end
 begin
     id 9 
     name rfoot
     direction -0.119193 -0.327479 0.93731   
     length 2.38061  
     axis -90 -7.62852e-016 -20   XYZ
    dof rx rz
    limits (-45.0 90.0)
           (-20.0 70.0)
  end
  begin
     id 10 
     name rtoes
     direction -1.53547e-011 -4.21827e-011 1   
     length 1.17899   
     axis -90 -7.62852e-016 -20   XYZ
    dof rx
    limits (-90.0 20.0)
  end
  begin
     id 11 
     name lowerback
     direction -0.000416114 0.999912 -0.0132284   
     length 2.12109   
     axis 0 0 0   XYZ
    dof rx ry rz
    limits (-20.0 45.0)
           (-30.0 30.0)
           (-30.0 30.0)
  end
  begin
     id 12 
     name upperback
     direction -0.00136371 0.99809 0.0617608   
     length 2.10067   
     axis 0 0 0   XYZ
    dof rx ry rz
    limits (-20.0 45.0)
           (-30.0 30.0)
           (-30.0 30.0)
  end
  begin
     id 13 
     name thorax
     direction -3.43026e-005 0.997776 0.0666515   
     length 2.10618   
     axis 0 0 0   XYZ
    dof rx ry rz
    limits (-20.0 45.0)
           (-30.0 30.0)
           (-30.0 30.0)
  end
  begin
     id 14 
     name lowerneck
     direction 0.0398646 0.998418 0.0396592   
     length 1.83817   
     axis 0 0 0   XYZ
    dof rx ry rz
    limits (-20.0 45.0)
           (-30.0 30.0)
           (-30.0 30.0)
  end
  begin
     id 15 
     name upperneck
     direction -0.0367268 0.961527 -0.272244   
     length 1.81975   
     axis 0 0 0   XYZ
    dof rx ry rz
    limits (-20.0 45.0)
           (-30.0 30.0)
           (-30.0 30.0)
  end
  begin
     id 16
     name head
     direction -0.0182665 0.99536 -0.0944669  
     length 1.86026  
     axis 0 0 0   XYZ
    dof rx ry rz
    limits (-20.0 45.0)
           (-30.0 30.0)
           (-30.0 30.0)
  end
  begin
     id 17 
     name lclavicle
     direction 0.924239 0.361045 0.124212  
     length 3.26878  
     axis 0 0 0   XYZ
    dof ry rz
    limits (-20.0 10.0)
           (0.0 20.0)
  end
  begin
     id 18 
     name lhumerus
     direction 1 -4.48968e-011 -2.56583e-027   
     length 4.58538   
     axis 180 -30 -90   XYZ
    dof rx ry rz
    limits (-60.0 90.0)
           (-90.0 90.0)
           (-90.0 90.0)
  end
  begin
     id 19
     name lradius
     direction 1 -4.4898e-011 -5.50375e-027   
     length 2.68935   
     axis 180 -30 -90   XYZ
    dof rx
    limits (-10.0 170.0)
  end
  begin
     id 20
     name lwrist
     direction 1 -4.48939e-011 -1.48955e-026   
     length 1.34468   
     axis 9.0955e-015 90 90   XYZ
    dof ry
    limits (-180.0 0.0)
 end
  begin
     id 21 
     name lhand
     direction 1 -4.48936e-011 -2.97907e-026   
     length 0.585058   
     axis 1.90115e-014 90 90   XYZ
    dof rx rz
    limits (-90.0 90.0)
           (-45.0 45.0)
  end
  begin
     id 22 
     name lfingers
     direction 1 -4.49082e-011 -5.96235e-026   
     length 0.471689   
     axis 3.80223e-014 90 90   XYZ
    dof rx
    limits (0.0 90.0)
  end
  begin
     id 23
     name lthumb
     direction 0.707107 -6.3489e-011 0.707107   
     length 0.677253   
     axis -90 45 -3.84942e-014   XYZ
    dof rx rz
    limits (-45.0 45.0)
           (-45.0 45.0)
  end
  begin
     id 24 
     name rclavicle
     direction -0.923098 0.371783 0.0983239   
     length 3.19656  
     axis 0 0 0   XYZ 
    dof ry rz
    limits (-10.0 20.0)
           (-20.0 0.0)
  end
  begin
     id 25 
     name rhumerus
     direction -1 -4.48976e-011 -2.5492e-027  
     length 4.4745   
     axis 180 30 90   XYZ
    dof rx ry rz
    limits (-90.0 60.0)
           (-90.0 90.0)
           (-90.0 90.0)
  end
  begin
     id 26 
     name rradius
     direction -1 -4.48941e-011 -4.36555e-027   
     length 2.93896   
     axis 180 30 90   XYZ
    dof rx
    limits (-10.0 170.0)
  end
  begin
     id 27 
     name rwrist
     direction -1 -4.49044e-011 -1.49032e-026   
     length 1.46948   
     axis 9.0955e-015 -90 -90   XYZ
    dof ry
    limits (-180.0 0.0)
  end
  begin
     id 28
     name rhand
     direction -1 -4.48826e-011 -2.97749e-026   
     length 0.405092   
     axis 1.90115e-014 -90 -90   XYZ
    dof rx rz
    limits (-90.0 90.0)
           (-45.0 45.0)
  end
  begin
     id 29
     name rfingers
     direction -1 -4.49209e-011 -5.96602e-026   
     length 0.326596   
     axis 3.80223e-014 -90 -90   XYZ
    dof rx
    limits (0.0 90.0)
  end
  begin
     id 30
     name rthumb
     direction -0.707107 -6.34776e-011 0.707107   
     length 0.468928   
     axis -90 -45 3.84942e-014   XYZ
    dof rx rz
    limits (-45.0 45.0)
           (-45.0 45.0)
  end
:hierarchy
  begin
    root lhipjoint rhipjoint lowerback
    lhipjoint lfemur
    lfemur ltibia
    ltibia lfoot
    lfoot ltoes
    rhipjoint rfemur
    rfemur rtibia
    rtibia rfoot
    rfoot rtoes
    lowerback upperback
    upperback thorax
    thorax lowerneck lclavicle rclavicle
    lowerneck upperneck
    upperneck head
    lclavicle lhumerus
    lhumerus lradius
    lradius lwrist
    lwrist lhand lthumb
    lhand lfingers
    rclavicle rhumerus
    rhumerus rradius
    rradius rwrist
    rwrist rhand rthumb
    rhand rfingers
  end

#!OML:ASF H:\Punching\Project 1\Capture day 1\Session 1\female.ASF
:FULLY-SPECIFIED
:DEGREES
386
root -1.49284 14.7562 5.71475 11.7261 10.6879 1.97747
lowerback -0.469969 -3.01654 -0.731474
upperback -4.90567 -4.03785 0.325929
thorax -4.72301 -1.97366 0.889594
lowerneck -5.09926 3.71757 12.1403
upperneck 36.0125 4.26189 -2.93413
head 13.3636 3.17694 -2.75622
rclavicle 2.46182e-014 -1.5704e-014
rhumerus 8.88388 26.441 -79.7142
rradius 134.737
rwrist -48.14
rhand -18.7442 -9.83484
rfingers 7.12502
rthumb 7.55202 -39.68
lclavicle 2.46182e-014 -1.5704e-014
lhumerus 10.6976 -16.2569 79.955
lradius 128.329
lwrist 40.0859
lhand -8.33725 32.0598
lfingers 7.12502
lthumb 17.5843 61.2846
rfemur -43.1599 1.1978 9.84881
rtibia 53.405
rfoot -18.4861 -6.72841
rtoes -6.60121
lfemur 8.35053 -9.01678 -6.37032
ltibia 10.6823
lfoot -17.6352 5.36271
ltoes -31.8949
387
root -1.51091 14.771 5.71849 11.7737 13.4044 1.96509
lowerback -0.228583 -2.94501 -0.398378
upperback -4.9587 -3.92367 0.567479
thorax -4.92295 -1.9219 0.965736
lowerneck -5.49405 2.91363 11.052
upperneck 35.7944 3.04718 -2.3012
head 13.1825 2.57877 -2.46365
rclavicle -2.49102e-015 1.98785e-016
rhumerus 8.74179 25.2558 -78.7649
rradius 135.206
rwrist -48.5791
rhand -18.8392 -10.0116
rfingers 7.12502
rthumb 7.46034 -39.8601
lclavicle -2.49102e-015 1.98785e-016
lhumerus 9.68994 -18.4215 80.8706
lradius 131.127
lwrist 41.3571
lhand -8.96982 32.3419
lfingers 7.12502
lthumb 16.9755 61.6202
rfemur -42.2098 -0.286304 10.0211
rtibia 53.3047
rfoot -18.7834 -7.60457
rtoes -6.90664
lfemur 5.9927 -9.55949 -5.31346
ltibia 12.9139
lfoot -18.2439 3.89142
ltoes -31.7258
388
root -1.52935 14.7842 5.72041 11.7824 16.0753 1.85592
lowerback 0.0402289 -2.85866 0.0318492
upperback -4.99667 -3.78237 0.83874
thorax -5.12771 -1.8605 1.01792
lowerneck -5.9028 2.10835 9.92032
upperneck 35.5329 1.84245 -1.6488
head 13.0156 1.98082 -2.15347
rclavicle -1.72694e-014 -9.14409e-015
rhumerus 8.65596 24.0082 -77.7235
rradius 135.678
rwrist -49.0291
rhand -18.935 -10.1819
rfingers 7.12502
rthumb 7.3679 -40.0336
lclavicle -1.72694e-014 -9.14409e-015
lhumerus 8.94424 -20.4594 81.6839
lradius 133.501
lwrist 42.4655
lhand -9.48293 32.5199
lfingers 7.12502
lthumb 16.4815 61.8398
rfemur -41.2581 -1.68955 10.2963
rtibia 53.1626
rfoot -19.0413 -8.51446
rtoes -7.18626
lfemur 3.75109 -10.0645 -4.20318
ltibia 14.9009
lfoot -18.7212 2.50201
ltoes -31.5006
389
root -1.54714 14.7953 5.72102 11.7239 18.6385 1.66048
lowerback 0.332888 -2.74846 0.549253
upperback -5.01848 -3.60127 1.12565
thorax -5.33417 -1.7833 1.03587
lowerneck -6.26981 1.30611 8.77791
upperneck 35.2134 0.665179 -1.00713
head 12.8472 1.39125 -1.84251
rclavicle -1.19134e-013 8.34896e-015
rhumerus 8.60778 22.7113 -76.6328
rradius 136.145
rwrist -49.5091
rhand -19.0443 -10.3578
rfingers 7.12502
rthumb 7.2624 -40.2132
lclavicle -1.19134e-013 8.34896e-015
lhumerus 8.43647 -22.3631 82.3802
lradius 135.479
lwrist 43.3075
lhand -9.87362 32.624
lfingers 7.12502
lthumb 16.1053 61.9748
rfemur -40.3055 -2.95658 10.6481
rtibia 52.9908
rfoot -19.26 -9.46227
rtoes -7.4223
lfemur 1.66419 -10.5249 -3.08878
ltibia 16.6872
lfoot -19.1094 1.24405
ltoes -31.2429
390
root -1.5641 14.8039 5.71986 11.6031 21.0187 1.39389
lowerback 0.637365 -2.61093 1.11536
upperback -5.02777 -3.37604 1.42409
thorax -5.53642 -1.68677 1.03525
lowerneck -6.57383 0.521917 7.65688
upperneck 34.8492 -0.458349 -0.406914
head 12.6789 0.822156 -1.54587
rclavicle 4.2043e-014 -7.95139e-015
rhumerus 8.61947 21.3875 -75.524
rradius 136.583
rwrist -50.0692
rhand -19.1438 -10.5182
rfingers 7.12502
rthumb 7.16639 -40.3769
lclavicle 4.2043e-014 -7.95139e-015
lhumerus 8.15111 -24.0977 82.9372
lradius 137.08
lwrist 43.8181
lhand -10.1257 32.6301
lfingers 7.12502
lthumb 15.8626 62.0003
rfemur -39.397 -4.02913 11.0486
rtibia 52.8079
rfoot -19.4321 -10.4471
rtoes -7.59705
lfemur -0.240606 -10.9265 -2.01537
ltibia 18.2832
lfoot -19.4299 0.162938
ltoes -30.9655
